<?xml version="1.0" encoding="UTF-8" standalone="no"?>
<svg
   width="24"
   height="24"
   viewBox="0 0 24 24"
   fill="none"
   version="1.1"
   id="svg8"
   sodipodi:docname="icon.svg"
   inkscape:version="1.3.2 (091e20ef0f, 2023-11-25)"
   inkscape:export-filename="/home/christianmader/Downloads/icon_large.png"
   inkscape:export-xdpi="4.54"
   inkscape:export-ydpi="4.54"
   xmlns:inkscape="http://www.inkscape.org/namespaces/inkscape"
   xmlns:sodipodi="http://sodipodi.sourceforge.net/DTD/sodipodi-0.dtd"
   xmlns="http://www.w3.org/2000/svg"
   xmlns:svg="http://www.w3.org/2000/svg">
  <defs
     id="defs12" />
  <sodipodi:namedview
     id="namedview10"
     pagecolor="#ffffff"
     bordercolor="#666666"
     borderopacity="1.0"
     inkscape:pageshadow="2"
     inkscape:pageopacity="0.0"
     inkscape:pagecheckerboard="0"
     showgrid="false"
     inkscape:zoom="16.510638"
     inkscape:cx="8.3279642"
     inkscape:cy="11.356315"
     inkscape:window-width="1522"
     inkscape:window-height="991"
     inkscape:window-x="26"
     inkscape:window-y="23"
     inkscape:window-maximized="0"
     inkscape:current-layer="svg8"
     inkscape:showpageshadow="2"
     inkscape:deskcolor="#d1d1d1" />
  <circle
     cx="-12.992088"
     cy="-10.918094"
     r="12"
     fill="#0099FF"
     id="circle2"
     style="fill:#03a9f4;fill-opacity:1;stroke-width:0.0283688"
     transform="rotate(-175.04256)"
     inkscape:export-filename="/home/christianmader/Downloads/http.png"
     inkscape:export-xdpi="4.54"
     inkscape:export-ydpi="4.54" />
  <g
     id="g1"
     transform="matrix(0.03368358,0.01570901,-0.01570901,0.03368358,7.3984185,-0.64471601)">
    <path
       fill-rule="evenodd"
       clip-rule="evenodd"
       d="m 353.29593,374.42256 c 3.6803,-1.59622 6.4799,-6.46791 12.08037,-16.21171 l 54.95113,-95.61159 c 5.5671,-9.68647 8.35129,-14.52991 7.88612,-18.50164 -0.38858,-3.31655 -2.12945,-6.32498 -4.81093,-8.31405 -3.21213,-2.38278 -8.79805,-2.38235 -19.97075,-2.38235 h -24.72219 v -90.82891 c 4.3e-4,-4.67954 -3.79328,-8.47325 -8.47282,-8.47282 l -43.52724,-4.3e-4 c -4.67954,4.3e-4 -8.47281,3.79371 -8.47281,8.47282 l -4.3e-4,90.82934 h -24.70764 c -11.17228,-4.3e-4 -16.7582,0 -19.97076,2.38235 -2.68148,1.98907 -4.42234,4.9975 -4.81092,8.31405 -0.46474,3.97216 2.31902,8.81517 7.88611,18.50164 l 54.95157,95.61116 v 6e-4 c 5.60004,9.74338 8.40006,14.6155 12.08036,16.21087 3.07177,1.33261 6.55864,1.33261 9.63083,4.2e-4 z"
       fill="#ffffff"
       id="path4"
       inkscape:export-filename="/home/christianmader/Downloads/http.png"
       inkscape:export-xdpi="4.54"
       inkscape:export-ydpi="4.54"
       style="stroke-width:0.605201" />
    <path
       fill-rule="evenodd"
       clip-rule="evenodd"
       d="m 168.34167,137.57096 c 3.67987,1.59579 6.47989,6.46791 12.07994,16.21128 l 54.95157,95.61202 c 5.56709,9.68646 8.35085,14.52947 7.88567,18.5012 -0.38814,3.31612 -2.129,6.32541 -4.81092,8.31405 -3.2117,2.38235 -8.79805,2.38235 -19.97033,2.38278 h -24.72218 v 90.82549 c 0,4.67912 -3.79371,8.47282 -8.47282,8.47282 h -43.52766 c -4.67912,0 -8.47282,-3.7937 -8.47282,-8.47282 v -90.82549 h -24.70764 c -11.172706,0 -16.758626,-4.3e-4 -19.97076,-2.38235 -2.681482,-1.98907 -4.422778,-4.99793 -4.810918,-8.31405 -0.464746,-3.97216 2.318585,-8.8156 7.885684,-18.50206 l 54.951564,-95.61116 4.3e-4,-4.3e-4 c 5.60004,-9.74337 8.40007,-14.61549 12.07994,-16.21128 3.07219,-1.33219 6.55905,-1.33219 9.63125,0 z"
       fill="#ffffff"
       id="path6"
       inkscape:export-filename="/home/christianmader/Downloads/http.png"
       inkscape:export-xdpi="4.54"
       inkscape:export-ydpi="4.54"
       style="stroke-width:0.605201" />
  </g>
</svg>
